Coordinates
version=1
nRows=20
nColumns=38
inDegrees=no

Units are S.I. units (second, meters, Newtons, ...)
If the header above contains a line with 'inDegrees', this indicates whether rotational values are in degrees (yes) or radians (no).

endheader
time	pelvis_tilt	pelvis_list	pelvis_rotation	pelvis_tx	pelvis_ty	pelvis_tz	hip_flexion_r	hip_adduction_r	hip_rotation_r	knee_angle_r	ankle_angle_r	subtalar_angle_r	mtp_angle_r	hip_flexion_l	hip_adduction_l	hip_rotation_l	knee_angle_l	ankle_angle_l	subtalar_angle_l	mtp_angle_l	lumbar_extension	lumbar_bending	lumbar_rotation	arm_flex_r	arm_add_r	arm_rot_r	elbow_flex_r	pro_sup_r	wrist_flex_r	wrist_dev_r	arm_flex_l	arm_add_l	arm_rot_l	elbow_flex_l	pro_sup_l	wrist_flex_l	wrist_dev_l
0	-0.907276	1.32682	-0.675269	0.893744	1.9038	0.946795	0.380296	0.202941	-0.284046	0.133433	0.243283	0	0	-0.350469	-0.118148	-0.246705	0.230599	0.36403	0	0	-0.256621	0.252524	-0.0496981	0.376691	-0.405707	0.172874	1.05103	0.855821	0	0	0.364703	-0.333949	-0.157189	1.10789	0.831356	0	0
0.01	-1.04683	1.31479	-0.546887	0.890739	1.88934	0.940332	0.398476	0.246884	-0.288991	0.102336	0.236929	0	0	-0.358262	-0.143693	-0.222576	0.215108	0.381043	0	0	-0.224988	0.282411	-0.0390448	0.369105	-0.414081	0.1839	1.05996	0.844895	0	0	0.354442	-0.33407	-0.151817	1.11343	0.831356	0	0
0.02	-0.903792	1.33159	-0.671561	0.89353	1.87979	0.941744	0.376247	0.209069	-0.299764	0.0873207	0.236787	0	0	-0.37613	-0.115977	-0.237077	0.231334	0.375721	0	0	-0.250561	0.250161	-0.0575519	0.380769	-0.403426	0.176825	1.04812	0.85156	0	0	0.366705	-0.337321	-0.151763	1.1069	0.831356	0	0
0.03	-0.956217	1.3365	-0.611699	0.894131	1.86735	0.937358	0.390441	0.213657	-0.311096	0.0790593	0.236443	0	0	-0.385063	-0.119714	-0.210194	0.211577	0.377347	0	0	-0.23313	0.25777	-0.0662992	0.380477	-0.406291	0.178977	1.05118	0.853653	0	0	0.363753	-0.336712	-0.151631	1.109	0.831356	0	0
0.04	-0.92723	1.34252	-0.648846	0.891816	1.85427	0.935595	0.391548	0.207618	-0.321215	0.0966048	0.250847	0	0	-0.388855	-0.115544	-0.245382	0.24834	0.393068	0	0	-0.236041	0.244151	-0.0596071	0.379582	-0.398678	0.175278	1.04768	0.857042	0	0	0.361904	-0.343186	-0.148461	1.11336	0.831356	0	0
0.05	-0.976908	1.34711	-0.590335	0.892705	1.84159	0.931302	0.406111	0.209269	-0.324996	0.105622	0.253525	0	0	-0.39575	-0.119498	-0.218369	0.235125	0.39446	0	0	-0.220445	0.251787	-0.0698126	0.380329	-0.401672	0.178644	1.05151	0.857772	0	0	0.358917	-0.342784	-0.148849	1.1162	0.831356	0	0
0.06	-0.96446	1.34624	-0.591425	0.894409	1.82869	0.929241	0.397312	0.213107	-0.307636	0.103772	0.246118	0	0	-0.404905	-0.123413	-0.209696	0.251398	0.400132	0	0	-0.222114	0.25661	-0.0809262	0.383943	-0.404145	0.18037	1.0524	0.869636	0	0	0.358569	-0.341496	-0.149188	1.11698	0.831356	0	0
0.07	-0.976388	1.35452	-0.581358	0.893217	1.81524	0.925951	0.413076	0.203807	-0.315892	0.150964	0.265854	0	0	-0.404326	-0.121951	-0.216477	0.273635	0.408153	0	0	-0.21384	0.250138	-0.0805123	0.382328	-0.402022	0.179661	1.05193	0.877504	0	0	0.356791	-0.345681	-0.145366	1.11887	0.831356	0	0
0.08	-0.95691	1.35499	-0.589674	0.894943	1.8018	0.923982	0.401628	0.206678	-0.27943	0.159522	0.257956	0	0	-0.411656	-0.12442	-0.205911	0.295157	0.409523	0	0	-0.215282	0.253139	-0.0909064	0.384824	-0.405805	0.184136	1.05385	0.873546	0	0	0.357337	-0.343444	-0.146281	1.11653	0.831356	0	0
0.09	-0.979989	1.36568	-0.566709	0.893968	1.78732	0.920547	0.417756	0.195971	-0.28457	0.213942	0.281203	0	0	-0.402739	-0.124864	-0.213511	0.329568	0.417074	0	0	-0.198308	0.247395	-0.08768	0.375481	-0.407798	0.181957	1.05631	0.862575	0	0	0.32586	-0.373493	0.0670705	1.03036	0.431512	0	0
0.1	-0.961499	1.36607	-0.57464	0.89539	1.77312	0.918647	0.401852	0.202615	-0.239747	0.218605	0.279242	0	0	-0.405447	-0.130171	-0.205736	0.361896	0.415602	0	0	-0.19752	0.250279	-0.0970838	0.376797	-0.411472	0.186413	1.05655	0.863419	0	0	0.324383	-0.370619	0.0697174	1.03215	0.490225	0	0
0.11	-0.960817	1.36697	-0.570907	0.895041	1.75851	0.916424	0.393129	0.207443	-0.222909	0.226862	0.277408	0	0	-0.401251	-0.140112	-0.211279	0.40593	0.415772	0	0	-0.19294	0.251591	-0.100477	0.376717	-0.412476	0.190842	1.05461	0.86535	0	0	0.322334	-0.370307	0.069705	1.03028	0.483609	0	0
0.12	-0.98418	1.36684	-0.552296	0.892536	1.74414	0.914277	0.394088	0.212122	-0.23308	0.23836	0.25388	0	0	-0.389552	-0.155782	-0.230246	0.461671	0.41339	0	0	-0.187227	0.252702	-0.0939108	0.376415	-0.410167	0.193115	1.04971	0.868831	0	0	0.321125	-0.372314	0.0716334	1.02864	0.477087	0	0
0.13	-1.01716	1.36232	-0.527148	0.890559	1.73108	0.913452	0.39848	0.225162	-0.226663	0.249164	0.196494	0	0	-0.372281	-0.17564	-0.246631	0.52634	0.400684	0	0	-0.187607	0.2606	-0.0828907	0.381747	-0.409855	0.196067	1.04246	0.872547	0	0	0.323313	-0.369759	0.0714248	1.02398	0.471026	0	0
0.14	-1.05057	1.35385	-0.502343	0.889727	1.71883	0.914136	0.404424	0.244326	-0.200023	0.268649	0.139638	0	0	-0.351093	-0.197258	-0.254983	0.596468	0.373466	0	0	-0.193277	0.274701	-0.0712834	0.392649	-0.411846	0.202525	1.03334	0.872811	0	0	0.326457	-0.362586	0.067244	1.01732	0.465341	0	0
0.15	-1.09938	1.35197	-0.467133	0.888154	1.70589	0.914543	0.429478	0.248913	-0.206559	0.329366	0.130118	0	0	-0.319702	-0.214432	-0.262106	0.673006	0.335589	0	0	-0.1901	0.281755	-0.0576545	0.400266	-0.409554	0.202308	1.02144	0.892009	0	0	0.322936	-0.358834	0.0804321	1.03055	0.736924	0	0
0.16	-1.11457	1.35117	-0.460682	0.88683	1.69187	0.915384	0.446839	0.235888	-0.25226	0.398191	0.141763	0	0	-0.292977	-0.22694	-0.257436	0.746904	0.286947	0	0	-0.188818	0.28403	-0.0502145	0.405976	-0.410825	0.215296	1.01503	0.873284	0	0	0.326371	-0.358077	0.0618024	1.00405	0.402027	0	0
0.17	-1.09627	1.34664	-0.48124	0.887064	1.67841	0.917376	0.438969	0.241526	-0.225142	0.423663	0.124461	0	0	-0.270476	-0.236413	-0.238166	0.818679	0.233226	0	0	-0.197632	0.288844	-0.0472855	0.413779	-0.412977	0.221464	1.01044	0.873206	0	0	0.329363	-0.357008	0.0682899	1.00327	0.469994	0	0
0.18	-1.08566	1.34644	-0.49845	0.88592	1.66465	0.918691	0.433747	0.236437	-0.234407	0.450733	0.106465	0	0	-0.244548	-0.241922	-0.220951	0.889602	0.183124	0	0	-0.201698	0.287405	-0.0406536	0.417139	-0.41413	0.225909	1.00884	0.872866	0	0	0.332648	-0.360707	0.0744112	0.993576	0.397846	0	0
0.19	-1.06858	1.34506	-0.523401	0.884412	1.6511	0.920169	0.420232	0.233235	-0.245738	0.463913	0.0843978	0	0	-0.220983	-0.245261	-0.20209	0.955168	0.134276	0	0	-0.208769	0.285517	-0.0319934	0.419279	-0.415617	0.227107	1.01201	0.877936	0	0	0.333269	-0.364639	0.0809029	0.993048	0.395266	0	0
